<?xml version="1.0" encoding="UTF-8"?>
<svg id="Layer_2" data-name="Layer 2" xmlns="http://www.w3.org/2000/svg" viewBox="0 0 1235.11 1000">
  <defs>
    <style>
      .cls-1, .cls-2, .cls-3 {
        fill: #fff;
      }

      .cls-2 {
        font-size: 87.7px;
        letter-spacing: .3em;
      }

      .cls-2, .cls-3 {
        font-family: Poppins-SemiBold, Poppins;
        font-weight: 600;
      }

      .cls-3 {
        font-size: 78.42px;
        letter-spacing: .21em;
      }
    </style>
  </defs>
  <g id="Text">
    <g>
      <text class="cls-2" transform="translate(70.53 947.99)"><tspan x="0" y="0">BUSINESS CENTRE</tspan></text>
      <text class="cls-3" transform="translate(0 482.28)"><tspan x="0" y="0" xml:space="preserve">  BHANDARY</tspan></text>
      <path class="cls-1" d="M134.59,795.04c4.19,3.26,11.03,6.1,20.53,8.52v13.69H45.61v-13.69c7.26-2.24,12.42-4.19,15.5-5.86,3.07-1.68,5.68-4.01,7.82-6.99,2.14-2.97,3.81-7.54,5.03-13.69,1.21-6.14,1.82-15.74,1.82-28.77v-121.8c0-11.91-.19-21.51-.56-28.77-.38-7.27-1.67-13.08-3.91-17.46-2.24-4.37-5.63-7.63-10.2-9.78-4.56-2.14-11.03-3.95-19.42-5.45v-14.8l65.09-2.51h17.04v199.74c0,16.02.75,27.15,2.24,33.38,1.49,6.24,4.33,10.99,8.52,14.25ZM450.11,788.76c-1.86-3.16-3.17-7.63-3.91-13.41-.75-5.77-1.12-15.09-1.12-27.93v-105.32c0-15.45-.98-28.21-2.94-38.27-1.96-10.06-4.89-18.67-8.8-25.84-3.91-7.17-8.89-13.17-14.94-18.02-6.05-4.84-13.04-8.42-20.95-10.76-7.92-2.32-16.9-3.49-26.96-3.49s-18.86,1.63-27.51,4.89c-8.67,3.26-17.23,7.87-25.7,13.83-8.48,5.96-19.61,15.93-33.38,29.89l-3.91-1.12,3.07-45.54h-17.04l-65.37,2.51v14.8c8.38,1.5,14.85,3.31,19.42,5.45,4.56,2.14,7.96,5.41,10.2,9.78,2.24,4.38,3.53,10.2,3.91,17.46.37,7.26.56,16.86.56,28.77v121.8c0,13.04-.61,22.63-1.82,28.77-1.22,6.14-2.89,10.71-5.03,13.69-2.14,2.98-4.75,5.31-7.82,6.99-3.07,1.67-8.24,3.63-15.5,5.86v13.69h109.51v-13.69c-9.5-2.42-16.34-5.26-20.53-8.52-4.19-3.26-7.03-8.01-8.52-14.25-1.49-6.23-2.24-17.36-2.24-33.38v-104.2c0-8.94,1.77-16.85,5.31-23.75,3.53-6.89,9.22-13.87,17.04-20.95,7.82-7.08,14.98-12.06,21.51-14.95,6.51-2.89,13.4-4.33,20.67-4.33s13.13.79,17.6,2.37c4.47,1.58,8.42,3.73,11.87,6.42,3.44,2.7,6.42,5.96,8.94,9.78,2.52,3.82,4.65,9.13,6.42,15.93,1.77,6.8,3.02,15.5,3.77,26.12.75,10.61,1.12,22.45,1.12,35.48v73.19c0,12.67-.6,22.12-1.81,28.36-1.21,6.24-2.9,10.85-5.03,13.83-2.14,2.98-4.8,5.31-7.97,6.99-3.17,1.67-8.38,3.63-15.64,5.86v13.69h110.07v-13.69c-8.76-2.42-14.91-4.7-18.44-6.84-3.55-2.14-6.24-4.79-8.11-7.96ZM1235.11,803.56v13.69h-76.55l1.4-39.95-4.19-1.12c-16.21,16.58-31.43,28.31-45.68,35.2-14.25,6.89-29.38,10.33-45.39,10.33-14.15,0-26.64-2.75-37.43-8.24-10.8-5.49-19.09-13.22-24.86-23.19-5.78-9.96-8.67-21.46-8.67-34.51,0-27.19,13.46-48.19,40.37-62.99,26.91-14.8,67.27-23.42,121.1-25.84v-18.16c0-19.37-1.86-34.64-5.59-45.81-3.73-11.18-9.59-19.37-17.59-24.59-8.01-5.21-18.72-7.82-32.13-7.82-14.53,0-26.22,3.82-35.06,11.45-8.85,7.64-15.5,19.1-19.97,34.36h-36.59v-36.32c17.88-9.31,32.78-16.16,44.7-20.53,11.91-4.37,23.84-7.82,35.76-10.34,11.91-2.51,24.02-3.77,36.32-3.77,18.44,0,33.24,2.93,44.41,8.8,11.17,5.86,19.55,14.85,25.14,26.96.1.21.18.46.28.68l4.98-5.61s3.13,18.19,3.13,59.69v97.22c0,13.79.08,23.52.27,29.19.19,5.69.75,10.95,1.67,15.78.94,4.85,2.33,8.71,4.19,11.59,1.86,2.89,4.61,5.36,8.24,7.41,3.63,2.05,9.54,4.19,17.74,6.42ZM1155.21,689.86c-37.81.37-66.12,5.4-84.92,15.08-18.82,9.69-28.22,24.31-28.22,43.86,0,10.61,2.14,19,6.42,25.14,4.29,6.15,9.69,10.39,16.21,12.71,6.52,2.33,14.25,3.49,23.19,3.49,12.67,0,24.17-3.07,34.51-9.22,10.33-6.14,18.38-13.97,24.17-23.46,5.77-9.5,8.66-18.9,8.66-28.21v-39.39ZM921.8,780.51c-1.39-5.86-2.1-16.9-2.1-33.1v-105.32c0-15.27-.93-27.89-2.79-37.85-1.86-9.96-4.71-18.53-8.52-25.7-3.82-7.17-8.76-13.22-14.8-18.16-6.05-4.93-13.09-8.61-21.09-11.04-8.01-2.42-17.14-3.63-27.38-3.63-9.5,0-18.4,1.5-26.68,4.47-8.29,2.98-16.67,7.4-25.14,13.27-8.48,5.86-19.97,16.16-34.49,30.87l-1.13-.28v-176.55h-16.75l-67.33,2.8v14.53c9.5,1.67,16.06,3.35,19.69,5.03,3.63,1.67,6.52,3.91,8.67,6.7,2.14,2.8,3.81,6.66,5.02,11.59,1.21,4.94,1.96,10.95,2.23,18.02.28,7.08.42,19.55.42,37.43v233.83c0,12.85-.46,22.25-1.39,28.21-.94,5.96-2.38,10.52-4.34,13.69-1.95,3.17-4.71,5.78-8.23,7.82-3.55,2.05-9.41,4.19-17.6,6.42v13.69h110.62v-13.69c-8-2.05-13.92-4.23-17.73-6.57-3.82-2.33-6.66-5.31-8.52-8.94-1.87-3.63-3.13-8.14-3.78-13.55-.65-5.4-.98-14.43-.98-27.1v-107c0-8.01,2-15.55,6.01-22.63,4-7.08,9.92-13.97,17.74-20.67,7.81-6.7,14.71-11.36,20.67-13.97,5.96-2.61,12.66-3.91,20.11-3.91,13.22,0,23.51,3.26,30.87,9.78,7.35,6.52,12.29,16.34,14.8,29.47,2.52,13.13,3.77,32.08,3.77,56.85v73.19c0,12.67-.61,22.12-1.81,28.36-1.22,6.24-2.9,10.85-5.03,13.83-2.15,2.98-4.8,5.31-7.96,6.99-3.17,1.67-8.38,3.63-15.65,5.86v13.69h110.06v-13.69c-10.99-2.97-18.29-6.1-21.92-9.36-3.63-3.25-6.15-7.82-7.55-13.69ZM604.32,780.79c-1.49-6.23-2.23-17.36-2.23-33.38v-199.74h-17.05l-65.08,2.51v14.8c8.38,1.5,14.85,3.31,19.42,5.45,4.56,2.14,7.96,5.41,10.19,9.78,2.23,4.38,3.54,10.2,3.91,17.46.38,7.26.57,16.86.57,28.77v121.8c0,13.04-.61,22.63-1.82,28.77-1.21,6.14-2.89,10.71-5.02,13.69-2.15,2.98-4.75,5.31-7.82,6.99-3.07,1.67-8.24,3.63-15.51,5.86v13.69h109.51v-13.69c-9.5-2.42-16.34-5.26-20.53-8.52-4.19-3.26-7.03-8.01-8.52-14.25Z"/>
      <path class="cls-1" d="M1171.01,512.65c-19.14-24.52-42.71-44.29-68.28-61.49-34.98-23.53-70.68-45.99-106.07-68.91-32.73-21.21-64.99-43.14-93.52-69.86-14.38-13.46-28.12-27.8-40.73-42.92-18.67-22.38-33.21-46.99-43.44-73.65-9.58-27.32-9.11-45.54-8.68-50.78,6.54,24.06,16.5,47.03,29.75,68.93,20.46,33.83,45.94,63.51,75.57,89.56,17.33,15.24,34.86,30.34,53.09,44.48,39.63,30.74,82.01,57.53,123.85,85.1,31.03,20.45,62.09,40.87,90.61,64.83,1.64,1.37,3.3,2.71,5.39,4.42,0,0,22.39,22.48,26.28,34.85,0,0-25.41-88.22-33.72-99.57-.04-.05-.09-.1-.12-.15-1.44-4.83-3.03-9.64-4.95-14.39-11.64-28.74-31.18-51.37-54.82-70.78-1.34-1.1-2.72-2.14-4.08-3.21,7.54,29.1,4.38,73.64,4.38,73.64-5.46-46.07-32-93.46-32.05-93.56-17.67-11.55-36.15-21.83-54.83-31.81-22.22-11.89-43.59-24.99-63.88-39.64,6.77,27.76,6.62,54.84,6.62,54.84-13.08-51.73-46.06-86.68-46.06-86.68l.31.18c-1.76-1.59-3.55-3.14-5.28-4.77-22.51-21.17-42.3-44.61-58.29-71.07-25.79-42.67-40.16-88.98-43.12-138.79-.22-3.64-.53-7.28-.83-11.45-1.65,1.22-2.77,1.99-3.84,2.84-12.54,10-24.22,20.89-34.36,33.37-6.66,8.19-12.41,16.54-17.4,25.02.51,14.85,3.05,38.96,13.55,54.33,0,0-14.67-7.46-23.06-35.71-16.24,37.35-16.93,77.36-.98,120.1,12.93,34.66,34.83,63.36,60.93,89.11,2.65,2.61,5.31,5.21,7.96,7.82-24.42-5.46-45.98-15.98-64.49-32.73,1.68,5.71,3.51,11.22,5.66,16.61,20.11,50.53,54.47,88.96,100.17,117.71,41.13,25.87,86.34,41.35,133.33,52.26.85.2,1.69.48,3.6,1.03-27.12,6.06-52.95,3.33-78.92-1.17.24.71.26,1.02.42,1.2.46.52.97.99,1.47,1.48,20.75,20.39,44.28,36.76,70.83,48.7,48.45,21.79,99.44,26.76,151.75,22.57,3.48-.28,6.12.36,8.79,2.49,10.87,8.69,18.89,19.55,24.74,32.08,9.26,19.82,12.87,40.98,14.93,62.55,2.23-11.97,2.93-23.98,1.84-36.03-2.48-27.41-13.23-51.45-30.04-72.99Z"/>
    </g>
  </g>
</svg>